<?xml version="1.0" standalone="no"?>
<!DOCTYPE svg PUBLIC "-//W3C//DTD SVG 20010904//EN"
 "http://www.w3.org/TR/2001/REC-SVG-20010904/DTD/svg10.dtd">
<svg version="1.0" xmlns="http://www.w3.org/2000/svg"
 width="1202.000000pt" height="380.000000pt" viewBox="0 0 1202.000000 380.000000"
 preserveAspectRatio="xMidYMid meet">
<g transform="translate(0.000000,380.000000) scale(0.100000,-0.100000)"
fill="#FFFFFF" stroke="none">
<path d="M10582 3770 c-343 -75 -592 -289 -752 -648 -166 -372 -242 -957 -200
-1537 66 -909 371 -1419 930 -1555 137 -34 383 -34 520 0 559 136 864 646 930
1555 42 580 -34 1165 -200 1537 -150 338 -387 553 -700 636 -135 35 -391 41
-528 12z m395 -363 c91 -26 148 -57 216 -118 235 -206 357 -679 357 -1386 0
-649 -101 -1104 -297 -1335 -120 -141 -246 -199 -433 -199 -159 0 -263 39
-372 139 -205 190 -311 517 -349 1072 -13 192 -7 627 11 795 55 514 199 846
425 980 126 74 296 94 442 52z"/>
<path d="M10751 2240 c-65 -14 -126 -47 -174 -94 -185 -186 -107 -506 142
-582 131 -40 286 7 375 113 88 105 100 276 28 400 -68 120 -232 191 -371 163z"/>
<path d="M200 3535 l0 -205 865 -2 865 -3 -965 -1447 -965 -1448 0 -185 0
-185 1190 0 c692 0 1190 4 1190 9 0 5 11 91 25 192 14 101 25 187 25 192 0 4
-430 7 -955 7 -525 0 -955 2 -955 5 0 2 432 654 960 1448 l960 1444 -2 189 -3
189 -1117 3 -1118 2 0 -205z"/>
<path d="M4295 2919 c-377 -47 -700 -289 -880 -658 -232 -473 -229 -1170 6
-1620 199 -381 511 -585 970 -632 192 -20 434 9 635 76 107 35 281 121 381
186 l82 54 -102 147 c-56 81 -105 147 -109 148 -4 0 -38 -19 -75 -42 -148 -91
-308 -155 -456 -183 -106 -20 -310 -20 -404 -1 -288 61 -496 267 -582 578 -20
71 -50 260 -51 316 l0 22 944 0 943 0 6 68 c23 239 -12 564 -85 777 -128 380
-380 633 -723 729 -152 42 -338 55 -500 35z m329 -374 c319 -67 514 -354 543
-796 l6 -99 -732 0 -731 0 6 58 c40 397 181 654 426 776 51 25 124 52 163 60
92 19 233 19 319 1z"/>
<path d="M8325 2923 c-373 -44 -621 -228 -831 -618 -27 -49 -50 -83 -51 -75
-1 8 -19 141 -38 295 -20 154 -38 295 -42 313 l-5 32 -389 0 -389 0 0 -175 0
-175 220 0 220 0 0 -1055 0 -1055 -220 0 -220 0 0 -175 0 -175 730 0 730 0 0
175 0 175 -285 0 -285 0 0 590 0 590 36 107 c48 148 159 372 231 468 163 218
356 331 604 351 l79 7 0 -302 0 -301 180 0 c99 0 180 1 181 3 3 8 66 943 64
945 -7 8 -122 34 -212 47 -89 14 -232 17 -308 8z"/>
</g>
</svg>
